<svg xmlns="http://www.w3.org/2000/svg" aria-hidden="true" style="position:absolute;width:0;height:0;overflow:hidden"><defs><symbol id="icon-arrow-down" viewBox="0 0 32 32"><path fill="#fff" d="M26.667 28H9.334a1.334 1.334 0 0 1 0-2.667h14.115L4.391 6.277a1.335 1.335 0 0 1 0-1.886 1.335 1.335 0 0 1 1.886 0l19.056 19.058V9.334a1.333 1.333 0 1 1 2.667 0v17.333a1.334 1.334 0 0 1-1.334 1.334z" style="fill:var(--color1, #fff)"/></symbol><symbol id="icon-close" viewBox="0 0 32 32"><path fill="#fff" d="m8.532 25.333-1.867-1.867 7.467-7.467-7.467-7.467 1.867-1.867 7.467 7.467 7.467-7.467 1.867 1.867-7.467 7.467 7.467 7.467-1.867 1.867-7.467-7.467z" style="fill:var(--color1, #fff)"/></symbol><symbol id="icon-email" viewBox="0 0 32 32"><path d="M28.415 3.585a2 2 0 0 0-1.958-.51h-.019l-23.993 7.28a1.998 1.998 0 0 0-1.182 2.916 2 2 0 0 0 .87.809l10.615 5.17 5.163 10.609A1.98 1.98 0 0 0 19.716 31a2 2 0 0 0 1.273-.452c.312-.257.539-.604.65-.993l7.275-23.993v-.019a2 2 0 0 0-.5-1.958zm-8.686 25.397-.006.017v-.009l-5.007-10.288 6-6a1 1 0 0 0-1.413-1.414l-6 6L3.02 12.281 27.001 5 19.73 28.981z"/></symbol><symbol id="icon-menu" viewBox="0 0 32 32"><path fill="#fff" d="M4 24v-2.667h24V24zm0-6.667v-2.667h24v2.667zm0-6.666V8h24v2.667z" style="fill:var(--color1, #fff)"/></symbol></defs></svg>